<svg width="109" height="101" viewBox="0 0 109 101" fill="none" xmlns="http://www.w3.org/2000/svg">
<g filter="url(#filter0_d)">
<rect x="9" y="2" width="90.4615" height="83" rx="15" fill="#F57E71"/>
</g>
<g clip-path="url(#clip0)">
<path d="M78.7423 42.5988C78.6779 42.5629 70.702 30.0599 58.5385 30C46.3749 30.0599 38.3991 42.5629 38.3346 42.5988L38.0769 42.994L38.3346 43.4012C38.3862 43.4371 46.1945 55.9401 58.5385 56C70.8953 55.9401 78.6908 43.4371 78.7423 43.4012L79 42.994L78.7423 42.5988ZM58.3452 53.1138C52.4309 53.1018 47.5475 48.6587 47.5346 43.006C47.5475 37.3533 52.4309 32.8982 58.3452 32.8862C64.2466 32.8982 69.1429 37.3413 69.1558 43.006C69.1429 48.6587 64.2466 53.1018 58.3452 53.1138Z" fill="#F9F9F9"/>
<path d="M58.5385 37.9641C55.6393 37.9641 53.204 40.1557 53.1912 43.006C53.204 45.8443 55.6393 48.0359 58.5385 48.0479C61.4376 48.0479 63.8729 45.8563 63.8858 43.006C63.8729 40.1557 61.4376 37.9641 58.5385 37.9641Z" fill="#F9F9F9"/>
</g>
<defs>
<filter id="filter0_d" x="0" y="0" width="108.462" height="101" filterUnits="userSpaceOnUse" color-interpolation-filters="sRGB">
<feFlood flood-opacity="0" result="BackgroundImageFix"/>
<feColorMatrix in="SourceAlpha" type="matrix" values="0 0 0 0 0 0 0 0 0 0 0 0 0 0 0 0 0 0 127 0" result="hardAlpha"/>
<feOffset dy="7"/>
<feGaussianBlur stdDeviation="4.5"/>
<feColorMatrix type="matrix" values="0 0 0 0 0 0 0 0 0 0 0 0 0 0 0 0 0 0 0.03 0"/>
<feBlend mode="normal" in2="BackgroundImageFix" result="effect1_dropShadow"/>
<feBlend mode="normal" in="SourceGraphic" in2="effect1_dropShadow" result="shape"/>
</filter>
<clipPath id="clip0">
<rect width="40.9231" height="26" fill="white" transform="translate(38.0769 30)"/>
</clipPath>
</defs>
</svg>
