<svg width="110" height="101" viewBox="0 0 110 101" fill="none" xmlns="http://www.w3.org/2000/svg">
<g filter="url(#filter0_d)">
<rect x="9.76923" y="2" width="90.4615" height="83" rx="15" fill="#4B7FFB"/>
</g>
<g clip-path="url(#clip0)">
<path d="M72.0532 30.6164C69.8684 28.1966 67.229 27.0133 64.0178 27C64.0031 27 64.0031 27 63.9885 27C60.7919 27 57.9473 28.2897 57.1555 28.6886C56.9355 28.7949 56.7889 28.8747 56.6863 28.9279L56.5836 28.9944C56.4223 29.0874 56.2317 29.1007 56.0557 29.021L55.7478 28.8747V28.888C55.6452 28.8481 55.5132 28.7949 55.3519 28.7284C54.7214 28.4891 54.0469 28.2631 53.3724 28.0504C51.8621 27.5983 49.5453 27.0665 47.0673 27.0665H47.0526C43.2109 27.0798 40.2636 28.2498 37.9908 30.6297C36.4072 32.3316 35.6154 34.1265 35.6154 36.1342C35.6154 38.2216 36.4805 40.4952 38.2841 43.0745C39.0319 44.1515 39.809 45.1088 40.4982 45.9464C41.0994 46.691 41.6273 47.3292 41.9498 47.8344C42.639 48.9778 42.9909 50.5866 43.3575 52.2752C43.4308 52.6076 43.5041 52.94 43.5774 53.2724C44.0027 55.2534 44.5745 57.4472 45.5716 58.697C46.3048 59.6011 47.0379 59.9734 48.1377 59.9867C48.8122 59.9601 49.2081 59.7607 49.6773 59.2023C50.1758 58.5907 50.4838 57.6068 50.6597 56.9021C50.9383 55.8251 51.0996 54.5355 51.2756 53.2857C51.4075 52.3284 51.5395 51.3445 51.7155 50.4404C51.9794 49.2039 52.2873 47.9275 53.1378 47.05C53.5923 46.5846 54.2522 46.3054 54.9413 46.3054C55.9384 46.3054 56.8182 46.8372 57.3608 47.7546C57.918 48.6587 58.2112 49.7756 58.4605 50.8525C58.6071 51.5439 58.7391 52.2619 58.8857 52.9799C59.223 54.8014 59.5456 56.5032 60.1174 57.7264C60.6306 58.7768 61.2172 59.4815 62.3609 59.4948C63.5926 59.4549 64.1204 59.056 64.6483 58.338C65.1029 57.6865 65.4401 56.6628 65.6747 55.2002C65.792 54.5886 65.8654 53.9371 65.9533 53.2724C66.2173 51.2514 66.4959 49.1773 67.5516 47.6217C68.0355 46.9569 68.6807 46.199 69.3698 45.4013C71.628 42.782 74.4433 39.5246 74.3993 36.0145C74.3846 34.1531 73.6221 32.3715 72.0532 30.6164Z" fill="#F9F9F9"/>
</g>
<defs>
<filter id="filter0_d" x="0.769226" y="0" width="108.462" height="101" filterUnits="userSpaceOnUse" color-interpolation-filters="sRGB">
<feFlood flood-opacity="0" result="BackgroundImageFix"/>
<feColorMatrix in="SourceAlpha" type="matrix" values="0 0 0 0 0 0 0 0 0 0 0 0 0 0 0 0 0 0 127 0" result="hardAlpha"/>
<feOffset dy="7"/>
<feGaussianBlur stdDeviation="4.5"/>
<feColorMatrix type="matrix" values="0 0 0 0 0 0 0 0 0 0 0 0 0 0 0 0 0 0 0.03 0"/>
<feBlend mode="normal" in2="BackgroundImageFix" result="effect1_dropShadow"/>
<feBlend mode="normal" in="SourceGraphic" in2="effect1_dropShadow" result="shape"/>
</filter>
<clipPath id="clip0">
<rect width="38.7692" height="33" fill="white" transform="translate(35.6154 27)"/>
</clipPath>
</defs>
</svg>
