<svg width="35" height="35" viewBox="0 0 35 35" fill="none" xmlns="http://www.w3.org/2000/svg">
<rect width="35" height="35" rx="8" fill="#FAF2EA"/>
<path d="M23.25 11.25H12.75C12.1533 11.25 11.581 11.4871 11.159 11.909C10.7371 12.331 10.5 12.9033 10.5 13.5V24.75C10.5002 24.8829 10.5358 25.0133 10.603 25.128C10.6702 25.2426 10.7667 25.3374 10.8825 25.4025C10.9946 25.466 11.1212 25.4996 11.25 25.5C11.3846 25.5 11.5167 25.4637 11.6325 25.395L15 23.355C15.1245 23.2809 15.2677 23.2444 15.4125 23.25H23.25C23.8467 23.25 24.419 23.0129 24.841 22.591C25.2629 22.169 25.5 21.5967 25.5 21V13.5C25.5 12.9033 25.2629 12.331 24.841 11.909C24.419 11.4871 23.8467 11.25 23.25 11.25ZM15 18C14.8517 18 14.7067 17.956 14.5833 17.8736C14.46 17.7912 14.3639 17.6741 14.3071 17.537C14.2503 17.4 14.2355 17.2492 14.2644 17.1037C14.2933 16.9582 14.3648 16.8246 14.4697 16.7197C14.5746 16.6148 14.7082 16.5434 14.8537 16.5144C14.9992 16.4855 15.15 16.5003 15.287 16.5571C15.4241 16.6139 15.5412 16.71 15.6236 16.8333C15.706 16.9567 15.75 17.1017 15.75 17.25C15.75 17.4489 15.671 17.6397 15.5303 17.7803C15.3897 17.921 15.1989 18 15 18ZM18 18C17.8517 18 17.7067 17.956 17.5833 17.8736C17.46 17.7912 17.3639 17.6741 17.3071 17.537C17.2503 17.4 17.2355 17.2492 17.2644 17.1037C17.2933 16.9582 17.3648 16.8246 17.4697 16.7197C17.5746 16.6148 17.7082 16.5434 17.8537 16.5144C17.9992 16.4855 18.15 16.5003 18.287 16.5571C18.4241 16.6139 18.5412 16.71 18.6236 16.8333C18.706 16.9567 18.75 17.1017 18.75 17.25C18.75 17.4489 18.671 17.6397 18.5303 17.7803C18.3897 17.921 18.1989 18 18 18ZM21 18C20.8517 18 20.7067 17.956 20.5833 17.8736C20.46 17.7912 20.3639 17.6741 20.3071 17.537C20.2503 17.4 20.2355 17.2492 20.2644 17.1037C20.2934 16.9582 20.3648 16.8246 20.4697 16.7197C20.5746 16.6148 20.7082 16.5434 20.8537 16.5144C20.9992 16.4855 21.15 16.5003 21.287 16.5571C21.4241 16.6139 21.5412 16.71 21.6236 16.8333C21.706 16.9567 21.75 17.1017 21.75 17.25C21.75 17.4489 21.671 17.6397 21.5303 17.7803C21.3897 17.921 21.1989 18 21 18Z" fill="#FFB167"/>
</svg>
