<svg width="35" height="35" viewBox="0 0 35 35" fill="none" xmlns="http://www.w3.org/2000/svg">
<rect width="35" height="35" rx="8" fill="#F9EDEB"/>
<path d="M24.7501 13.3625C24.5223 13.2599 24.2692 13.2265 24.0226 13.2665C23.7759 13.3065 23.5464 13.4182 23.3626 13.5875L21.7501 15.0875V14C21.7501 13.4033 21.5131 12.831 21.0911 12.409C20.6692 11.9871 20.0969 11.75 19.5001 11.75H12.7501C12.1534 11.75 11.5811 11.9871 11.1591 12.409C10.7372 12.831 10.5001 13.4033 10.5001 14V20C10.5001 20.5967 10.7372 21.169 11.1591 21.591C11.5811 22.013 12.1534 22.25 12.7501 22.25H19.5001C20.0969 22.25 20.6692 22.013 21.0911 21.591C21.5131 21.169 21.7501 20.5967 21.7501 20V18.9125L23.3701 20.4125C23.6086 20.6284 23.9184 20.7486 24.2401 20.75C24.4186 20.7496 24.595 20.7112 24.7576 20.6375C24.9788 20.548 25.1683 20.3946 25.3019 20.1969C25.4355 19.9992 25.5071 19.7661 25.5076 19.5275V14.4725C25.5065 14.233 25.4338 13.9993 25.2988 13.8015C25.1638 13.6037 24.9727 13.4508 24.7501 13.3625Z" fill="#F57E71"/>
</svg>
