<svg width="43" height="42" viewBox="0 0 43 42" fill="none" xmlns="http://www.w3.org/2000/svg">
<path d="M42.2411 20.6199C42.2411 9.23286 33.0083 0 21.6212 0C10.2342 0 1.00136 9.23286 1.00136 20.6199C1.00136 32.0069 10.2318 41.2398 21.6212 41.2398C33.0107 41.2398 42.2411 32.0069 42.2411 20.6199Z" fill="#5A4980"/>
<path d="M42.2411 20.6199C42.2411 9.23286 33.0083 0 21.6212 0V41.2398C33.0107 41.2398 42.2411 32.0069 42.2411 20.6199Z" fill="#534378"/>
<mask id="mask0" style="mask-type:alpha" maskUnits="userSpaceOnUse" x="0" y="0" width="42" height="42">
<path d="M41.9986 20.6199C41.9986 9.23286 32.7657 0 21.3787 0C9.99164 0 0.758789 9.23286 0.758789 20.6199C0.758789 32.0069 9.98922 41.2398 21.3787 41.2398C32.7681 41.2398 41.9986 32.0069 41.9986 20.6199Z" fill="#5A4980"/>
<path d="M41.9985 20.6199C41.9985 9.23286 32.7657 0 21.3787 0V41.2398C32.7681 41.2398 41.9985 32.0069 41.9985 20.6199Z" fill="#534378"/>
</mask>
<g mask="url(#mask0)">
<path d="M13.6814 16.9447C13.6814 20.3992 11.7868 20.4889 11.9202 22.7765C12.0706 25.3091 14.0501 25.314 14.0501 27.0557C14.0501 28.7975 12.2307 30.7479 13.8415 32.6231C20.9347 32.6231 21.6261 32.6231 21.6261 32.6231V11.5011L13.6814 16.9447Z" fill="#461811"/>
<path d="M29.5659 16.9447C29.5659 20.3992 31.4606 20.4889 31.3271 22.7765C31.1767 25.3091 29.1972 25.314 29.1972 27.0557C29.1972 28.7975 31.0166 30.7479 29.4058 32.6231C22.3126 32.6231 21.6212 32.6231 21.6212 32.6231V11.5011L29.5659 16.9447Z" fill="#461811"/>
<path d="M30.6867 13.3738C30.6867 8.38868 26.6452 4.34961 21.6625 4.34961C16.6773 4.34961 12.6382 8.39111 12.6382 13.3738C12.6382 18.359 16.6797 22.3981 21.6625 22.3981C26.6476 22.3981 30.6867 18.359 30.6867 13.3738Z" fill="#461811"/>
<path d="M24.6827 32.7007L21.6237 41.2762L18.6447 32.7007V26.0781H24.6827V32.7007Z" fill="#EAC8AD"/>
<path d="M21.6625 7.72641C18.7296 7.72641 14.0938 9.39298 14.0938 17.2043C14.0938 21.714 15.8525 23.839 16.4929 24.6565C17.0824 25.4086 20.1075 27.8393 21.6625 27.8393C21.6625 19.9455 21.6625 7.72641 21.6625 7.72641Z" fill="#F2D7BC"/>
<path d="M12.6358 19.0674C12.5073 17.8205 13.1016 16.7118 13.9628 16.593C14.8264 16.4741 15.6294 17.3911 15.7604 18.638C15.8889 19.8849 15.2946 20.9935 14.431 21.1124C13.5698 21.2288 12.7644 20.3143 12.6358 19.0674Z" fill="#F2D7BC"/>
<path d="M21.6382 7.72641C24.5711 7.72641 29.2069 9.39298 29.2069 17.2043C29.2069 21.714 27.4482 23.839 26.8077 24.6565C26.2183 25.4086 23.1932 27.8393 21.6382 27.8393C21.6382 19.9455 21.6382 7.72641 21.6382 7.72641Z" fill="#EAC0A7"/>
<path d="M30.6891 19.0674C30.8177 17.8205 30.2234 16.7118 29.3622 16.593C28.4986 16.4741 27.6956 17.3911 27.567 18.638C27.4385 19.8849 28.0328 20.9935 28.894 21.1124C29.7576 21.2288 30.5606 20.3143 30.6891 19.0674Z" fill="#EAC0A7"/>
<path d="M21.6236 41.2762V33.0282C21.6236 33.0282 19.37 32.4703 18.8751 30.646C18.6374 29.7678 18.6423 29.0643 18.6423 29.0643C18.6423 29.0643 13.7153 30.7285 12.6164 32.446C11.7018 35.1702 11.4496 41.2762 11.4496 41.2762H21.6236Z" fill="#EAC8AD"/>
<path d="M21.6236 41.2762V33.0282C21.6236 33.0282 23.8773 32.4703 24.3721 30.646C24.6099 29.7678 24.605 29.0643 24.605 29.0643C24.605 29.0643 29.532 30.7285 30.6309 32.446C31.5454 35.1702 31.7977 41.2762 31.7977 41.2762H21.6236Z" fill="#EAC8AD"/>
<path d="M21.6625 25.0884C22.8051 25.0884 23.7317 24.3873 23.7317 23.5212H19.5932C19.5932 24.3873 20.5199 25.0884 21.6625 25.0884Z" fill="white"/>
<path d="M21.6237 38.0522C21.6237 38.0522 19.455 32.6231 18.6423 29.0668C17.8199 29.3846 17.1479 29.5835 16.6337 29.8503C14.1957 34.9835 14.0914 41.2786 14.0914 41.2786H21.6213V38.0522H21.6237Z" fill="#EB1A3A"/>
<path d="M21.6577 38.0522C21.6577 38.0522 23.8264 32.6231 24.6391 29.0668C25.4614 29.3846 26.1334 29.5835 26.6477 29.8503C29.0857 34.9835 29.19 41.2786 29.19 41.2786H21.6577V38.0522Z" fill="#C5132D"/>
<path d="M21.2355 5.48004C15.8792 5.48004 14.249 10.1741 14.249 12.3355C12.3059 15.0355 14.4237 17.4517 15.9228 18.3008C15.9228 17.7986 15.9228 17.6142 15.9228 16.9714C15.9228 15.2248 17.5846 13.6067 20.0784 13.876C22.3126 14.1161 23.722 12.8547 24.9107 10.7054C26.3783 7.83071 24.5468 5.48004 21.2355 5.48004Z" fill="#461811"/>
<path d="M24.6827 9.8248C24.6827 9.8248 25.9345 14.907 29.3622 16.593C29.9735 12.0251 30.3326 12.9857 29.3622 10.5817C28.3919 8.17521 24.6827 6.38977 24.6827 6.38977V9.8248Z" fill="#461811"/>
</g>
</svg>
