<svg width="55" height="57" viewBox="0 0 55 57" fill="none" xmlns="http://www.w3.org/2000/svg">
<rect width="55" height="57" rx="7" fill="#D8E3FF"/>
<path d="M15.28 42.934V42.276L17.38 41.912V42.822C17.38 43.242 17.492 43.564 17.716 43.788C17.9493 44.0027 18.2387 44.11 18.584 44.11C18.9387 44.11 19.2187 43.9933 19.424 43.76C19.6387 43.5173 19.746 43.2093 19.746 42.836V36.074H21.958V42.892C21.958 43.816 21.6407 44.6 21.006 45.244C20.3713 45.888 19.5687 46.21 18.598 46.21C17.6087 46.21 16.806 45.9113 16.19 45.314C15.5833 44.7073 15.28 43.914 15.28 42.934ZM23.4067 44.082C23.4067 43.494 23.598 43.0227 23.9807 42.668C24.3633 42.304 24.858 42.0753 25.4647 41.982L27.1027 41.73C27.4387 41.6833 27.6067 41.5247 27.6067 41.254C27.6067 41.0393 27.5133 40.862 27.3267 40.722C27.1493 40.5727 26.902 40.498 26.5847 40.498C26.23 40.498 25.9453 40.6007 25.7307 40.806C25.5253 41.002 25.4133 41.24 25.3947 41.52L23.5467 41.142C23.5933 40.5633 23.878 40.036 24.4007 39.56C24.9327 39.0747 25.6653 38.832 26.5987 38.832C27.6533 38.832 28.428 39.084 28.9227 39.588C29.4267 40.092 29.6787 40.736 29.6787 41.52V44.922C29.6787 45.3607 29.7067 45.72 29.7627 46H27.8447C27.798 45.8133 27.7747 45.552 27.7747 45.216C27.3733 45.8693 26.72 46.196 25.8147 46.196C25.0773 46.196 24.4893 45.9907 24.0507 45.58C23.6213 45.16 23.4067 44.6607 23.4067 44.082ZM26.3327 44.656C26.6967 44.656 27 44.5487 27.2427 44.334C27.4853 44.1193 27.6067 43.7647 27.6067 43.27V42.962L26.2907 43.172C25.768 43.256 25.5067 43.5127 25.5067 43.942C25.5067 44.138 25.572 44.306 25.7027 44.446C25.8427 44.586 26.0527 44.656 26.3327 44.656ZM33.5973 42.01V46H31.4693V39.042H33.5273V39.84C33.7046 39.532 33.9753 39.294 34.3393 39.126C34.7126 38.9487 35.0906 38.86 35.4733 38.86C36.3039 38.86 36.9339 39.1213 37.3633 39.644C37.7926 40.1573 38.0073 40.82 38.0073 41.632V46H35.8793V41.996C35.8793 41.632 35.7813 41.3427 35.5853 41.128C35.3986 40.904 35.1186 40.792 34.7453 40.792C34.3999 40.792 34.1199 40.9087 33.9053 41.142C33.6999 41.366 33.5973 41.6553 33.5973 42.01Z" fill="#4B7FFB"/>
<path d="M23.304 28H19.536V17.872H15.816V15.352C16.952 15.336 17.904 15.048 18.672 14.488C19.456 13.928 19.92 13.24 20.064 12.424H23.304V28ZM29.9891 18.664L26.4371 18.64C26.3411 18.384 26.2931 17.952 26.2931 17.344C26.2931 15.872 26.8131 14.624 27.8531 13.6C28.9091 12.576 30.3331 12.064 32.1251 12.064C33.8691 12.064 35.2691 12.56 36.3251 13.552C37.3811 14.528 37.9091 15.736 37.9091 17.176C37.9091 19.192 36.8851 20.808 34.8371 22.024L31.8851 23.776C31.3571 24.112 31.0051 24.464 30.8291 24.832H38.0291V28H26.1971C26.1971 26.464 26.4691 25.136 27.0131 24.016C27.5731 22.88 28.5251 21.92 29.8691 21.136L32.4131 19.648C33.0371 19.28 33.4771 18.92 33.7331 18.568C33.9891 18.2 34.1171 17.76 34.1171 17.248C34.1171 16.72 33.9331 16.28 33.5651 15.928C33.2131 15.576 32.7011 15.4 32.0291 15.4C31.3251 15.4 30.7811 15.616 30.3971 16.048C30.0291 16.48 29.8451 17.032 29.8451 17.704C29.8451 18.04 29.8931 18.36 29.9891 18.664Z" fill="#4B7FFB"/>
</svg>
